# xmcd
#
# Track frame offsets: 
#        150
#        16851
#        33270
#        48287
#        62121
#        75590
#        92806
#        106523
#        122354
#        135710
#        148507
#        164564
#        181614
#        196901
#
# Disc length: 2857 seconds
#
# Revision: 0
# Processed by: cddbd v1.5.2PL0 Copyright (c) Steve Scherf et al.
# Submitted via: ExactAudioCopy v0.95b4
#
DISCID=a70b270e
DTITLE=Atlantyda - Tak jak ptaki na b³êkitnym niebie
DYEAR=1900
DGENRE=Folk
TTITLE0=Tak jak ptaki na blekitnym niebie
TTITLE1=Billy boy
TTITLE2=Wiatry polnocy
TTITLE3=Opowiesci zlotej fali
TTITLE4=Ten kaszalot
TTITLE5=Rok 1820
TTITLE6=Polka z czech
TTITLE7=Irlandzki zeglarz
TTITLE8=Czy to Nowy York
TTITLE9=Ciagnijmy stare liny
TTITLE10=I'm sailor
TTITLE11=Blackberry blossom
TTITLE12=Zabiez mnie
TTITLE13=Morze dziwne jest
EXTD=
EXTT0=
EXTT1=
EXTT2=
EXTT3=
EXTT4=
EXTT5=
EXTT6=
EXTT7=
EXTT8=
EXTT9=
EXTT10=
EXTT11=
EXTT12=
EXTT13=
PLAYORDER=
